# Blender v2.93.5 OBJ File: 'curved-stick.blend'
# www.blender.org
mtllib extra-curved-stick.mtl
o Cube
v 0.750000 0.100000 -0.050000
v 0.750000 0.000000 -0.050000
v 0.750000 0.100000 0.050000
v 0.750000 0.000000 0.050000
v -0.577000 0.100000 -0.050000
v -0.750000 0.000000 -0.050000
v -0.577000 0.100000 0.050000
v -0.750000 0.000000 0.050000
v -0.975200 0.389596 -0.052289
v -0.975200 0.389596 0.047711
v -0.802200 0.489596 0.047711
v -0.802200 0.489596 -0.052289
v -0.862600 0.194798 -0.088000
v -0.689600 0.294798 -0.088000
v -0.689600 0.294798 0.012000
v -0.862600 0.194798 0.012000
v -0.918900 0.292197 -0.081000
v -0.745900 0.392197 0.019000
v -0.745900 0.392197 -0.081000
v -0.918900 0.292197 0.019000
v -0.633300 0.197399 -0.078000
v -0.806300 0.097399 0.022000
v -0.806300 0.097399 -0.078000
v -0.633300 0.197399 0.022000
v -0.947050 0.340896 -0.070512
v -0.774050 0.440896 0.029488
v -0.774050 0.440896 -0.070512
v -0.947050 0.340896 0.029488
v -0.717750 0.343497 -0.086000
v -0.890750 0.243497 0.014000
v -0.890750 0.243497 -0.086000
v -0.717750 0.343497 0.014000
v -0.834450 0.146098 -0.087000
v -0.661450 0.246098 0.013000
v -0.661450 0.246098 -0.087000
v -0.834450 0.146098 0.013000
v -0.605150 0.148699 -0.065000
v -0.778150 0.048699 0.035000
v -0.778150 0.048699 -0.065000
v -0.605150 0.148699 0.035000
v -1.004726 0.440676 -0.027607
v -1.004726 0.440676 0.072393
v -0.831726 0.540676 0.072393
v -0.831726 0.540676 -0.027607
v -1.036454 0.495566 0.013170
v -1.036454 0.495566 0.113170
v -0.863454 0.595566 0.113170
v -0.863454 0.595566 0.013170
vt 0.625000 0.500000
vt 0.875000 0.500000
vt 0.875000 0.750000
vt 0.625000 0.750000
vt 0.375000 0.750000
vt 0.625000 1.000000
vt 0.375000 1.000000
vt 0.625000 0.250000
vt 0.375000 0.250000
vt 0.375000 0.250000
vt 0.625000 0.250000
vt 0.125000 0.500000
vt 0.375000 0.500000
vt 0.125000 0.750000
vt 0.375000 0.250000
vt 0.625000 0.250000
vt 0.875000 0.750000
vt 0.875000 0.500000
vt 0.875000 0.500000
vt 0.875000 0.750000
vt 0.375000 1.000000
vt 0.625000 1.000000
vt 0.625000 1.000000
vt 0.375000 1.000000
vt 0.125000 0.500000
vt 0.125000 0.750000
vt 0.125000 0.750000
vt 0.125000 0.500000
vt 0.875000 0.750000
vt 0.875000 0.500000
vt 0.875000 0.750000
vt 0.875000 0.500000
vt 0.875000 0.500000
vt 0.875000 0.750000
vt 0.125000 0.500000
vt 0.125000 0.750000
vt 0.125000 0.750000
vt 0.125000 0.500000
vt 0.375000 1.000000
vt 0.625000 1.000000
vt 0.625000 1.000000
vt 0.375000 1.000000
vt 0.625000 0.250000
vt 0.375000 0.250000
vt 0.375000 0.250000
vt 0.625000 0.250000
vt 0.875000 0.750000
vt 0.875000 0.500000
vt 0.875000 0.500000
vt 0.875000 0.750000
vt 0.125000 0.500000
vt 0.125000 0.750000
vt 0.125000 0.750000
vt 0.125000 0.500000
vt 0.375000 1.000000
vt 0.625000 1.000000
vt 0.625000 1.000000
vt 0.375000 1.000000
vt 0.625000 0.250000
vt 0.375000 0.250000
vt 0.375000 0.250000
vt 0.625000 0.250000
vt 0.625000 0.250000
vt 0.375000 0.250000
vt 0.375000 0.250000
vt 0.625000 0.250000
vt 0.375000 1.000000
vt 0.625000 1.000000
vt 0.625000 1.000000
vt 0.375000 1.000000
vt 0.125000 0.500000
vt 0.125000 0.750000
vt 0.125000 0.750000
vt 0.125000 0.500000
vt 0.875000 0.750000
vt 0.875000 0.500000
vt 0.875000 0.500000
vt 0.875000 0.750000
vt 0.875000 0.500000
vt 0.875000 0.750000
vt 0.625000 1.000000
vt 0.375000 1.000000
vt 0.375000 0.250000
vt 0.625000 0.250000
vt 0.125000 0.750000
vt 0.125000 0.500000
vt 0.375000 0.000000
vt 0.625000 0.000000
vt 0.625000 0.250000
vt 0.375000 0.250000
vt 0.625000 1.000000
vt 0.375000 1.000000
vt 0.125000 0.750000
vt 0.125000 0.500000
vn 0.0000 1.0000 0.0000
vn 0.0000 0.0000 1.0000
vn -0.1542 0.2668 -0.9513
vn 0.0000 -1.0000 0.0000
vn 1.0000 0.0000 0.0000
vn 0.0000 0.0000 -1.0000
vn 0.8658 0.5004 0.0000
vn 0.1542 -0.2668 0.9513
vn -0.8658 -0.5004 0.0000
vn -0.0089 0.0154 0.9998
vn 0.0089 -0.0154 -0.9998
vn 0.0443 -0.0767 0.9961
vn -0.0443 0.0767 -0.9961
vn 0.1127 -0.1950 -0.9743
vn -0.1127 0.1950 0.9743
vn 0.0917 -0.1587 0.9831
vn -0.0917 0.1587 -0.9831
vn -0.0178 0.0308 -0.9994
vn 0.0178 -0.0308 0.9994
vn 0.0791 -0.1368 -0.9874
vn -0.0791 0.1368 0.9874
vn -0.1289 0.2231 0.9662
vn 0.1289 -0.2231 -0.9662
vn 0.1931 -0.3341 0.9225
vn -0.1931 0.3341 -0.9225
vn -0.5004 0.8658 0.0000
vn 0.2707 -0.4683 0.8411
vn -0.2707 0.4683 -0.8411
usemtl Material
s off
f 1/1/1 5/2/1 7/3/1 3/4/1
f 4/5/2 3/4/2 7/6/2 8/7/2
f 27/8/3 25/9/3 9/10/3 12/11/3
f 6/12/4 2/13/4 4/5/4 8/14/4
f 2/13/5 1/1/5 3/4/5 4/5/5
f 6/15/6 5/16/6 1/1/6 2/13/6
f 11/17/7 12/18/7 44/19/7 43/20/7
f 28/21/8 26/22/8 11/23/8 10/24/8
f 25/25/9 28/26/9 10/27/9 9/28/9
f 26/29/7 27/30/7 12/18/7 11/17/7
f 34/31/7 35/32/7 14/33/7 15/34/7
f 33/35/9 36/36/9 16/37/9 13/38/9
f 36/39/10 34/40/10 15/41/10 16/42/10
f 35/43/11 33/44/11 13/45/11 14/46/11
f 32/47/7 29/48/7 19/49/7 18/50/7
f 31/51/9 30/52/9 20/53/9 17/54/9
f 30/55/12 32/56/12 18/57/12 20/58/12
f 29/59/13 31/60/13 17/61/13 19/62/13
f 37/63/14 39/64/14 23/65/14 21/66/14
f 38/67/15 40/68/15 24/69/15 22/70/15
f 39/71/9 38/72/9 22/73/9 23/74/9
f 40/75/7 37/76/7 21/77/7 24/78/7
f 18/50/7 19/49/7 27/30/7 26/29/7
f 17/54/9 20/53/9 28/26/9 25/25/9
f 20/58/16 18/57/16 26/22/16 28/21/16
f 19/62/17 17/61/17 25/9/17 27/8/17
f 14/46/18 13/45/18 31/60/18 29/59/18
f 16/42/19 15/41/19 32/56/19 30/55/19
f 13/38/9 16/37/9 30/52/9 31/51/9
f 15/34/7 14/33/7 29/48/7 32/47/7
f 21/66/20 23/65/20 33/44/20 35/43/20
f 22/70/21 24/69/21 34/40/21 36/39/21
f 23/74/9 22/73/9 36/36/9 33/35/9
f 24/78/7 21/77/7 35/32/7 34/31/7
f 7/3/7 5/2/7 37/76/7 40/75/7
f 6/12/9 8/14/9 38/72/9 39/71/9
f 8/7/22 7/6/22 40/68/22 38/67/22
f 5/16/23 6/15/23 39/64/23 37/63/23
f 43/20/7 44/19/7 48/79/7 47/80/7
f 10/24/24 11/23/24 43/81/24 42/82/24
f 12/11/25 9/10/25 41/83/25 44/84/25
f 9/28/9 10/27/9 42/85/9 41/86/9
f 46/87/26 47/88/26 48/89/26 45/90/26
f 42/82/27 43/81/27 47/91/27 46/92/27
f 44/84/28 41/83/28 45/90/28 48/89/28
f 41/86/9 42/85/9 46/93/9 45/94/9
