# Blender v2.93.5 OBJ File: 'net.blend'
# www.blender.org
mtllib net-double-sided.mtl
o Cube
v 1.105806 0.622006 0.059499
v 1.105806 -0.553135 0.059499
v 1.105806 0.622006 1.000000
v 1.105806 -0.553135 1.000000
v -0.003820 0.622006 -0.241769
v -0.003820 -0.553135 -0.241769
v -0.003820 0.622006 1.000000
v 0.562979 -0.553135 -0.241769
v 1.105806 0.000000 0.059499
v 1.105806 0.000000 1.000000
v -0.003820 0.000000 -0.241769
v 0.562979 0.622006 1.000000
v 1.105806 0.622006 0.358043
v -0.003820 0.622006 0.358043
v 0.562979 0.622006 -0.241769
v 1.105806 -0.553135 0.358043
v 0.562979 0.000000 -0.241769
v 1.105806 0.000000 0.358043
v 0.562979 0.622006 0.358043
v 1.105806 0.333577 0.059499
v 0.278012 -0.553135 -0.241769
v 1.105806 -0.293782 0.059499
v 1.105806 0.333577 1.000000
v 1.105806 -0.293782 1.000000
v -0.003820 -0.293782 -0.241769
v 0.278012 0.622006 1.000000
v 1.105806 0.622006 0.681773
v 0.824930 -0.553135 -0.241769
v -0.003820 0.622006 0.059499
v 0.824930 0.622006 -0.241769
v -0.003820 0.333577 -0.241769
v 0.824930 0.622006 1.000000
v -0.003820 0.622006 0.681773
v 0.278012 0.622006 -0.241769
v 1.105806 -0.553135 0.681773
v 0.824930 0.000000 -0.241769
v 0.278012 0.000000 -0.241769
v 0.562979 -0.293782 -0.241769
v 0.562979 0.333577 -0.241769
v 1.105806 0.000000 0.681773
v 1.105806 -0.293782 0.358043
v 1.105806 0.333577 0.358043
v 0.562979 0.622006 0.681773
v 0.562979 0.622006 0.059499
v 0.824930 0.622006 0.358043
v 0.278012 0.622006 0.358043
v 0.278012 0.622006 0.059499
v 0.824930 0.622006 0.059499
v 0.824930 0.622006 0.681773
v 1.105806 -0.293782 0.681773
v 0.824930 0.333577 -0.241769
v 1.105806 0.333577 0.681773
v 0.824930 -0.293782 -0.241769
v 0.278012 0.333577 -0.241769
v 0.278012 -0.293782 -0.241769
v 0.278012 0.622006 0.681773
v 1.105806 0.622006 0.059499
v 1.105806 -0.553135 0.059499
v 1.105806 0.622006 1.000000
v 1.105806 -0.553135 1.000000
v -0.003820 0.622006 -0.241769
v -0.003820 -0.553135 -0.241769
v -0.003820 0.622006 1.000000
v 0.562979 -0.553135 -0.241769
v 1.105806 0.000000 0.059499
v 1.105806 0.000000 1.000000
v -0.003820 0.000000 -0.241769
v 0.562979 0.622006 1.000000
v 1.105806 0.622006 0.358043
v -0.003820 0.622006 0.358043
v 0.562979 0.622006 -0.241769
v 1.105806 -0.553135 0.358043
v 0.562979 0.000000 -0.241769
v 1.105806 0.000000 0.358043
v 0.562979 0.622006 0.358043
v 1.105806 0.333577 0.059499
v 0.278012 -0.553135 -0.241769
v 1.105806 -0.293782 0.059499
v 1.105806 0.333577 1.000000
v 1.105806 -0.293782 1.000000
v -0.003820 -0.293782 -0.241769
v 0.278012 0.622006 1.000000
v 1.105806 0.622006 0.681773
v 0.824930 -0.553135 -0.241769
v -0.003820 0.622006 0.059499
v 0.824930 0.622006 -0.241769
v -0.003820 0.333577 -0.241769
v 0.824930 0.622006 1.000000
v -0.003820 0.622006 0.681773
v 0.278012 0.622006 -0.241769
v 1.105806 -0.553135 0.681773
v 0.824930 0.000000 -0.241769
v 0.278012 0.000000 -0.241769
v 0.562979 -0.293782 -0.241769
v 0.562979 0.333577 -0.241769
v 1.105806 0.000000 0.681773
v 1.105806 -0.293782 0.358043
v 1.105806 0.333577 0.358043
v 0.562979 0.622006 0.681773
v 0.562979 0.622006 0.059499
v 0.824930 0.622006 0.358043
v 0.278012 0.622006 0.358043
v 0.278012 0.622006 0.059499
v 0.824930 0.622006 0.059499
v 0.824930 0.622006 0.681773
v 1.105806 -0.293782 0.681773
v 0.824930 0.333577 -0.241769
v 1.105806 0.333577 0.681773
v 0.824930 -0.293782 -0.241769
v 0.278012 0.333577 -0.241769
v 0.278012 -0.293782 -0.241769
v 0.278012 0.622006 0.681773
v -1.105806 0.622006 0.059499
v -1.105806 -0.553135 0.059499
v -1.105806 0.622006 1.000000
v -1.105806 -0.553135 1.000000
v 0.003820 0.622006 -0.241769
v 0.003820 -0.553135 -0.241769
v 0.003820 0.622006 1.000000
v -0.562979 -0.553135 -0.241769
v -1.105806 0.000000 0.059499
v -1.105806 0.000000 1.000000
v 0.003820 0.000000 -0.241769
v -0.562979 0.622006 1.000000
v -1.105806 0.622006 0.358043
v 0.003820 0.622006 0.358043
v -0.562979 0.622006 -0.241769
v -1.105806 -0.553135 0.358043
v -0.562979 0.000000 -0.241769
v -1.105806 0.000000 0.358043
v -0.562979 0.622006 0.358043
v -1.105806 0.333577 0.059499
v -0.278012 -0.553135 -0.241769
v -1.105806 -0.293782 0.059499
v -1.105806 0.333577 1.000000
v -1.105806 -0.293782 1.000000
v 0.003820 -0.293782 -0.241769
v -0.278012 0.622006 1.000000
v -1.105806 0.622006 0.681773
v -0.824930 -0.553135 -0.241769
v 0.003820 0.622006 0.059499
v -0.824930 0.622006 -0.241769
v 0.003820 0.333577 -0.241769
v -0.824930 0.622006 1.000000
v 0.003820 0.622006 0.681773
v -0.278012 0.622006 -0.241769
v -1.105806 -0.553135 0.681773
v -0.824930 0.000000 -0.241769
v -0.278012 0.000000 -0.241769
v -0.562979 -0.293782 -0.241769
v -0.562979 0.333577 -0.241769
v -1.105806 0.000000 0.681773
v -1.105806 -0.293782 0.358043
v -1.105806 0.333577 0.358043
v -0.562979 0.622006 0.681773
v -0.562979 0.622006 0.059499
v -0.824930 0.622006 0.358043
v -0.278012 0.622006 0.358043
v -0.278012 0.622006 0.059499
v -0.824930 0.622006 0.059499
v -0.824930 0.622006 0.681773
v -1.105806 -0.293782 0.681773
v -0.824930 0.333577 -0.241769
v -1.105806 0.333577 0.681773
v -0.824930 -0.293782 -0.241769
v -0.278012 0.333577 -0.241769
v -0.278012 -0.293782 -0.241769
v -0.278012 0.622006 0.681773
v -1.105806 0.622006 0.059499
v -1.105806 -0.553135 0.059499
v -1.105806 0.622006 1.000000
v -1.105806 -0.553135 1.000000
v 0.003820 0.622006 -0.241769
v 0.003820 -0.553135 -0.241769
v 0.003820 0.622006 1.000000
v -0.562979 -0.553135 -0.241769
v -1.105806 0.000000 0.059499
v -1.105806 0.000000 1.000000
v 0.003820 0.000000 -0.241769
v -0.562979 0.622006 1.000000
v -1.105806 0.622006 0.358043
v 0.003820 0.622006 0.358043
v -0.562979 0.622006 -0.241769
v -1.105806 -0.553135 0.358043
v -0.562979 0.000000 -0.241769
v -1.105806 0.000000 0.358043
v -0.562979 0.622006 0.358043
v -1.105806 0.333577 0.059499
v -0.278012 -0.553135 -0.241769
v -1.105806 -0.293782 0.059499
v -1.105806 0.333577 1.000000
v -1.105806 -0.293782 1.000000
v 0.003820 -0.293782 -0.241769
v -0.278012 0.622006 1.000000
v -1.105806 0.622006 0.681773
v -0.824930 -0.553135 -0.241769
v 0.003820 0.622006 0.059499
v -0.824930 0.622006 -0.241769
v 0.003820 0.333577 -0.241769
v -0.824930 0.622006 1.000000
v 0.003820 0.622006 0.681773
v -0.278012 0.622006 -0.241769
v -1.105806 -0.553135 0.681773
v -0.824930 0.000000 -0.241769
v -0.278012 0.000000 -0.241769
v -0.562979 -0.293782 -0.241769
v -0.562979 0.333577 -0.241769
v -1.105806 0.000000 0.681773
v -1.105806 -0.293782 0.358043
v -1.105806 0.333577 0.358043
v -0.562979 0.622006 0.681773
v -0.562979 0.622006 0.059499
v -0.824930 0.622006 0.358043
v -0.278012 0.622006 0.358043
v -0.278012 0.622006 0.059499
v -0.824930 0.622006 0.059499
v -0.824930 0.622006 0.681773
v -1.105806 -0.293782 0.681773
v -0.824930 0.333577 -0.241769
v -1.105806 0.333577 0.681773
v -0.824930 -0.293782 -0.241769
v -0.278012 0.333577 -0.241769
v -0.278012 -0.293782 -0.241769
v -0.278012 0.622006 0.681773
vt 0.812500 0.687500
vt 0.875000 0.687500
vt 0.875000 0.750000
vt 0.812500 0.750000
vt 0.437500 0.312500
vt 0.500000 0.312500
vt 0.500000 0.375000
vt 0.437500 0.375000
vt 0.562500 0.312500
vt 0.625000 0.312500
vt 0.625000 0.375000
vt 0.562500 0.375000
vt 0.437500 0.437500
vt 0.500000 0.437500
vt 0.500000 0.500000
vt 0.437500 0.500000
vt 0.562500 0.687500
vt 0.625000 0.687500
vt 0.625000 0.750000
vt 0.562500 0.750000
vt 0.562500 0.437500
vt 0.625000 0.437500
vt 0.625000 0.500000
vt 0.562500 0.500000
vt 0.437500 0.687500
vt 0.500000 0.687500
vt 0.500000 0.750000
vt 0.437500 0.750000
vt 0.437500 0.562500
vt 0.500000 0.562500
vt 0.500000 0.625000
vt 0.437500 0.625000
vt 0.562500 0.562500
vt 0.625000 0.562500
vt 0.625000 0.625000
vt 0.562500 0.625000
vt 0.687500 0.687500
vt 0.750000 0.687500
vt 0.750000 0.750000
vt 0.687500 0.750000
vt 0.687500 0.562500
vt 0.750000 0.562500
vt 0.750000 0.625000
vt 0.687500 0.625000
vt 0.812500 0.562500
vt 0.875000 0.562500
vt 0.875000 0.625000
vt 0.812500 0.625000
vt 0.750000 0.500000
vt 0.812500 0.500000
vt 0.875000 0.500000
vt 0.687500 0.500000
vt 0.375000 0.562500
vt 0.375000 0.625000
vt 0.375000 0.687500
vt 0.375000 0.750000
vt 0.375000 0.437500
vt 0.375000 0.500000
vt 0.375000 0.375000
vt 0.500000 0.250000
vt 0.562500 0.250000
vt 0.625000 0.250000
vt 0.375000 0.312500
vt 0.375000 0.250000
vt 0.437500 0.250000
vt 0.812500 0.687500
vt 0.812500 0.750000
vt 0.875000 0.750000
vt 0.875000 0.687500
vt 0.437500 0.312500
vt 0.437500 0.375000
vt 0.500000 0.375000
vt 0.500000 0.312500
vt 0.562500 0.312500
vt 0.562500 0.375000
vt 0.625000 0.375000
vt 0.625000 0.312500
vt 0.437500 0.437500
vt 0.437500 0.500000
vt 0.500000 0.500000
vt 0.500000 0.437500
vt 0.562500 0.687500
vt 0.562500 0.750000
vt 0.625000 0.750000
vt 0.625000 0.687500
vt 0.562500 0.437500
vt 0.562500 0.500000
vt 0.625000 0.500000
vt 0.625000 0.437500
vt 0.437500 0.687500
vt 0.437500 0.750000
vt 0.500000 0.750000
vt 0.500000 0.687500
vt 0.437500 0.562500
vt 0.437500 0.625000
vt 0.500000 0.625000
vt 0.500000 0.562500
vt 0.562500 0.562500
vt 0.562500 0.625000
vt 0.625000 0.625000
vt 0.625000 0.562500
vt 0.687500 0.687500
vt 0.687500 0.750000
vt 0.750000 0.750000
vt 0.750000 0.687500
vt 0.687500 0.562500
vt 0.687500 0.625000
vt 0.750000 0.625000
vt 0.750000 0.562500
vt 0.812500 0.562500
vt 0.812500 0.625000
vt 0.875000 0.625000
vt 0.875000 0.562500
vt 0.750000 0.500000
vt 0.812500 0.500000
vt 0.875000 0.500000
vt 0.687500 0.500000
vt 0.375000 0.562500
vt 0.375000 0.625000
vt 0.375000 0.687500
vt 0.375000 0.750000
vt 0.375000 0.437500
vt 0.375000 0.500000
vt 0.375000 0.375000
vt 0.500000 0.250000
vt 0.562500 0.250000
vt 0.625000 0.250000
vt 0.375000 0.312500
vt 0.375000 0.250000
vt 0.437500 0.250000
vt 0.812500 0.687500
vt 0.812500 0.750000
vt 0.875000 0.750000
vt 0.875000 0.687500
vt 0.437500 0.312500
vt 0.437500 0.375000
vt 0.500000 0.375000
vt 0.500000 0.312500
vt 0.562500 0.312500
vt 0.562500 0.375000
vt 0.625000 0.375000
vt 0.625000 0.312500
vt 0.437500 0.437500
vt 0.437500 0.500000
vt 0.500000 0.500000
vt 0.500000 0.437500
vt 0.562500 0.687500
vt 0.562500 0.750000
vt 0.625000 0.750000
vt 0.625000 0.687500
vt 0.562500 0.437500
vt 0.562500 0.500000
vt 0.625000 0.500000
vt 0.625000 0.437500
vt 0.437500 0.687500
vt 0.437500 0.750000
vt 0.500000 0.750000
vt 0.500000 0.687500
vt 0.437500 0.562500
vt 0.437500 0.625000
vt 0.500000 0.625000
vt 0.500000 0.562500
vt 0.562500 0.562500
vt 0.562500 0.625000
vt 0.625000 0.625000
vt 0.625000 0.562500
vt 0.687500 0.687500
vt 0.687500 0.750000
vt 0.750000 0.750000
vt 0.750000 0.687500
vt 0.687500 0.562500
vt 0.687500 0.625000
vt 0.750000 0.625000
vt 0.750000 0.562500
vt 0.812500 0.562500
vt 0.812500 0.625000
vt 0.875000 0.625000
vt 0.875000 0.562500
vt 0.750000 0.500000
vt 0.812500 0.500000
vt 0.875000 0.500000
vt 0.687500 0.500000
vt 0.375000 0.562500
vt 0.375000 0.625000
vt 0.375000 0.687500
vt 0.375000 0.750000
vt 0.375000 0.437500
vt 0.375000 0.500000
vt 0.375000 0.375000
vt 0.500000 0.250000
vt 0.562500 0.250000
vt 0.625000 0.250000
vt 0.375000 0.312500
vt 0.375000 0.250000
vt 0.437500 0.250000
vt 0.812500 0.687500
vt 0.875000 0.687500
vt 0.875000 0.750000
vt 0.812500 0.750000
vt 0.437500 0.312500
vt 0.500000 0.312500
vt 0.500000 0.375000
vt 0.437500 0.375000
vt 0.562500 0.312500
vt 0.625000 0.312500
vt 0.625000 0.375000
vt 0.562500 0.375000
vt 0.437500 0.437500
vt 0.500000 0.437500
vt 0.500000 0.500000
vt 0.437500 0.500000
vt 0.562500 0.687500
vt 0.625000 0.687500
vt 0.625000 0.750000
vt 0.562500 0.750000
vt 0.562500 0.437500
vt 0.625000 0.437500
vt 0.625000 0.500000
vt 0.562500 0.500000
vt 0.437500 0.687500
vt 0.500000 0.687500
vt 0.500000 0.750000
vt 0.437500 0.750000
vt 0.437500 0.562500
vt 0.500000 0.562500
vt 0.500000 0.625000
vt 0.437500 0.625000
vt 0.562500 0.562500
vt 0.625000 0.562500
vt 0.625000 0.625000
vt 0.562500 0.625000
vt 0.687500 0.687500
vt 0.750000 0.687500
vt 0.750000 0.750000
vt 0.687500 0.750000
vt 0.687500 0.562500
vt 0.750000 0.562500
vt 0.750000 0.625000
vt 0.687500 0.625000
vt 0.812500 0.562500
vt 0.875000 0.562500
vt 0.875000 0.625000
vt 0.812500 0.625000
vt 0.750000 0.500000
vt 0.812500 0.500000
vt 0.875000 0.500000
vt 0.687500 0.500000
vt 0.375000 0.562500
vt 0.375000 0.625000
vt 0.375000 0.687500
vt 0.375000 0.750000
vt 0.375000 0.437500
vt 0.375000 0.500000
vt 0.375000 0.375000
vt 0.500000 0.250000
vt 0.562500 0.250000
vt 0.625000 0.250000
vt 0.375000 0.312500
vt 0.375000 0.250000
vt 0.437500 0.250000
vn 0.0000 1.0000 0.0000
vn 0.0000 0.0000 -1.0000
vn 0.7314 0.0000 -0.6819
vn 1.0000 0.0000 0.0000
vn 0.0000 -1.0000 0.0000
vn 0.0000 0.0000 1.0000
vn -0.7314 0.0000 0.6819
vn -1.0000 0.0000 0.0000
vn -0.7314 0.0000 -0.6819
vn 0.7314 0.0000 0.6819
usemtl Material
s off
f 56/1/1 33/2/1 7/3/1 26/4/1
f 55/5/2 37/6/2 17/7/2 38/8/2
f 54/9/2 34/10/2 15/11/2 39/12/2
f 53/13/3 36/14/3 9/15/3 22/16/3
f 52/17/4 27/18/4 3/19/4 23/20/4
f 51/21/3 30/22/3 1/23/3 20/24/3
f 50/25/4 40/26/4 10/27/4 24/28/4
f 22/29/4 9/30/4 18/31/4 41/32/4
f 20/33/4 1/34/4 13/35/4 42/36/4
f 49/37/1 43/38/1 12/39/1 32/40/1
f 48/41/1 44/42/1 19/43/1 45/44/1
f 47/45/1 29/46/1 14/47/1 46/48/1
f 44/42/1 47/45/1 46/48/1 19/43/1
f 15/49/1 34/50/1 47/45/1 44/42/1
f 34/50/1 5/51/1 29/46/1 47/45/1
f 1/34/1 48/41/1 45/44/1 13/35/1
f 30/52/1 15/49/1 44/42/1 48/41/1
f 27/18/1 49/37/1 32/40/1 3/19/1
f 13/35/1 45/44/1 49/37/1 27/18/1
f 45/44/1 19/43/1 43/38/1 49/37/1
f 9/30/4 20/33/4 42/36/4 18/31/4
f 2/53/4 22/29/4 41/32/4 16/54/4
f 35/55/4 50/25/4 24/28/4 4/56/4
f 16/54/4 41/32/4 50/25/4 35/55/4
f 41/32/4 18/31/4 40/26/4 50/25/4
f 36/14/3 51/21/3 20/24/3 9/15/3
f 17/7/2 39/12/2 51/21/2 36/14/2
f 39/12/2 15/11/2 30/22/2 51/21/2
f 40/26/4 52/17/4 23/20/4 10/27/4
f 18/31/4 42/36/4 52/17/4 40/26/4
f 42/36/4 13/35/4 27/18/4 52/17/4
f 28/57/3 53/13/3 22/16/3 2/58/3
f 8/59/2 38/8/2 53/13/2 28/57/2
f 38/8/2 17/7/2 36/14/2 53/13/2
f 37/6/2 54/9/2 39/12/2 17/7/2
f 11/60/2 31/61/2 54/9/2 37/6/2
f 31/61/2 5/62/2 34/10/2 54/9/2
f 21/63/2 55/5/2 38/8/2 8/59/2
f 6/64/2 25/65/2 55/5/2 21/63/2
f 25/65/2 11/60/2 37/6/2 55/5/2
f 43/38/1 56/1/1 26/4/1 12/39/1
f 19/43/1 46/48/1 56/1/1 43/38/1
f 46/48/1 14/47/1 33/2/1 56/1/1
f 30/52/1 48/41/1 1/34/1
f 112/66/5 82/67/5 63/68/5 89/69/5
f 111/70/6 94/71/6 73/72/6 93/73/6
f 110/74/6 95/75/6 71/76/6 90/77/6
f 109/78/7 78/79/7 65/80/7 92/81/7
f 108/82/8 79/83/8 59/84/8 83/85/8
f 107/86/7 76/87/7 57/88/7 86/89/7
f 106/90/8 80/91/8 66/92/8 96/93/8
f 78/94/8 97/95/8 74/96/8 65/97/8
f 76/98/8 98/99/8 69/100/8 57/101/8
f 105/102/5 88/103/5 68/104/5 99/105/5
f 104/106/5 101/107/5 75/108/5 100/109/5
f 103/110/5 102/111/5 70/112/5 85/113/5
f 100/109/5 75/108/5 102/111/5 103/110/5
f 71/114/5 100/109/5 103/110/5 90/115/5
f 90/115/5 103/110/5 85/113/5 61/116/5
f 57/101/5 69/100/5 101/107/5 104/106/5
f 86/117/5 104/106/5 100/109/5 71/114/5
f 83/85/5 59/84/5 88/103/5 105/102/5
f 69/100/5 83/85/5 105/102/5 101/107/5
f 101/107/5 105/102/5 99/105/5 75/108/5
f 65/97/8 74/96/8 98/99/8 76/98/8
f 58/118/8 72/119/8 97/95/8 78/94/8
f 91/120/8 60/121/8 80/91/8 106/90/8
f 72/119/8 91/120/8 106/90/8 97/95/8
f 97/95/8 106/90/8 96/93/8 74/96/8
f 92/81/7 65/80/7 76/87/7 107/86/7
f 73/72/6 92/81/6 107/86/6 95/75/6
f 95/75/6 107/86/6 86/89/6 71/76/6
f 96/93/8 66/92/8 79/83/8 108/82/8
f 74/96/8 96/93/8 108/82/8 98/99/8
f 98/99/8 108/82/8 83/85/8 69/100/8
f 84/122/7 58/123/7 78/79/7 109/78/7
f 64/124/6 84/122/6 109/78/6 94/71/6
f 94/71/6 109/78/6 92/81/6 73/72/6
f 93/73/6 73/72/6 95/75/6 110/74/6
f 67/125/6 93/73/6 110/74/6 87/126/6
f 87/126/6 110/74/6 90/77/6 61/127/6
f 77/128/6 64/124/6 94/71/6 111/70/6
f 62/129/6 77/128/6 111/70/6 81/130/6
f 81/130/6 111/70/6 93/73/6 67/125/6
f 99/105/5 68/104/5 82/67/5 112/66/5
f 75/108/5 99/105/5 112/66/5 102/111/5
f 102/111/5 112/66/5 89/69/5 70/112/5
f 86/117/5 57/101/5 104/106/5
f 168/131/1 138/132/1 119/133/1 145/134/1
f 167/135/2 150/136/2 129/137/2 149/138/2
f 166/139/2 151/140/2 127/141/2 146/142/2
f 165/143/9 134/144/9 121/145/9 148/146/9
f 164/147/8 135/148/8 115/149/8 139/150/8
f 163/151/9 132/152/9 113/153/9 142/154/9
f 162/155/8 136/156/8 122/157/8 152/158/8
f 134/159/8 153/160/8 130/161/8 121/162/8
f 132/163/8 154/164/8 125/165/8 113/166/8
f 161/167/1 144/168/1 124/169/1 155/170/1
f 160/171/1 157/172/1 131/173/1 156/174/1
f 159/175/1 158/176/1 126/177/1 141/178/1
f 156/174/1 131/173/1 158/176/1 159/175/1
f 127/179/1 156/174/1 159/175/1 146/180/1
f 146/180/1 159/175/1 141/178/1 117/181/1
f 113/166/1 125/165/1 157/172/1 160/171/1
f 142/182/1 160/171/1 156/174/1 127/179/1
f 139/150/1 115/149/1 144/168/1 161/167/1
f 125/165/1 139/150/1 161/167/1 157/172/1
f 157/172/1 161/167/1 155/170/1 131/173/1
f 121/162/8 130/161/8 154/164/8 132/163/8
f 114/183/8 128/184/8 153/160/8 134/159/8
f 147/185/8 116/186/8 136/156/8 162/155/8
f 128/184/8 147/185/8 162/155/8 153/160/8
f 153/160/8 162/155/8 152/158/8 130/161/8
f 148/146/9 121/145/9 132/152/9 163/151/9
f 129/137/2 148/146/2 163/151/2 151/140/2
f 151/140/2 163/151/2 142/154/2 127/141/2
f 152/158/8 122/157/8 135/148/8 164/147/8
f 130/161/8 152/158/8 164/147/8 154/164/8
f 154/164/8 164/147/8 139/150/8 125/165/8
f 140/187/9 114/188/9 134/144/9 165/143/9
f 120/189/2 140/187/2 165/143/2 150/136/2
f 150/136/2 165/143/2 148/146/2 129/137/2
f 149/138/2 129/137/2 151/140/2 166/139/2
f 123/190/2 149/138/2 166/139/2 143/191/2
f 143/191/2 166/139/2 146/142/2 117/192/2
f 133/193/2 120/189/2 150/136/2 167/135/2
f 118/194/2 133/193/2 167/135/2 137/195/2
f 137/195/2 167/135/2 149/138/2 123/190/2
f 155/170/1 124/169/1 138/132/1 168/131/1
f 131/173/1 155/170/1 168/131/1 158/176/1
f 158/176/1 168/131/1 145/134/1 126/177/1
f 142/182/1 113/166/1 160/171/1
f 224/196/5 201/197/5 175/198/5 194/199/5
f 223/200/6 205/201/6 185/202/6 206/203/6
f 222/204/6 202/205/6 183/206/6 207/207/6
f 221/208/10 204/209/10 177/210/10 190/211/10
f 220/212/4 195/213/4 171/214/4 191/215/4
f 219/216/10 198/217/10 169/218/10 188/219/10
f 218/220/4 208/221/4 178/222/4 192/223/4
f 190/224/4 177/225/4 186/226/4 209/227/4
f 188/228/4 169/229/4 181/230/4 210/231/4
f 217/232/5 211/233/5 180/234/5 200/235/5
f 216/236/5 212/237/5 187/238/5 213/239/5
f 215/240/5 197/241/5 182/242/5 214/243/5
f 212/237/5 215/240/5 214/243/5 187/238/5
f 183/244/5 202/245/5 215/240/5 212/237/5
f 202/245/5 173/246/5 197/241/5 215/240/5
f 169/229/5 216/236/5 213/239/5 181/230/5
f 198/247/5 183/244/5 212/237/5 216/236/5
f 195/213/5 217/232/5 200/235/5 171/214/5
f 181/230/5 213/239/5 217/232/5 195/213/5
f 213/239/5 187/238/5 211/233/5 217/232/5
f 177/225/4 188/228/4 210/231/4 186/226/4
f 170/248/4 190/224/4 209/227/4 184/249/4
f 203/250/4 218/220/4 192/223/4 172/251/4
f 184/249/4 209/227/4 218/220/4 203/250/4
f 209/227/4 186/226/4 208/221/4 218/220/4
f 204/209/10 219/216/10 188/219/10 177/210/10
f 185/202/6 207/207/6 219/216/6 204/209/6
f 207/207/6 183/206/6 198/217/6 219/216/6
f 208/221/4 220/212/4 191/215/4 178/222/4
f 186/226/4 210/231/4 220/212/4 208/221/4
f 210/231/4 181/230/4 195/213/4 220/212/4
f 196/252/10 221/208/10 190/211/10 170/253/10
f 176/254/6 206/203/6 221/208/6 196/252/6
f 206/203/6 185/202/6 204/209/6 221/208/6
f 205/201/6 222/204/6 207/207/6 185/202/6
f 179/255/6 199/256/6 222/204/6 205/201/6
f 199/256/6 173/257/6 202/205/6 222/204/6
f 189/258/6 223/200/6 206/203/6 176/254/6
f 174/259/6 193/260/6 223/200/6 189/258/6
f 193/260/6 179/255/6 205/201/6 223/200/6
f 211/233/5 224/196/5 194/199/5 180/234/5
f 187/238/5 214/243/5 224/196/5 211/233/5
f 214/243/5 182/242/5 201/197/5 224/196/5
f 198/247/5 216/236/5 169/229/5
