# Blender v2.93.5 OBJ File: 'better-net.blend'
# www.blender.org
mtllib net.mtl
o Cube
v 1.000000 1.500000 -0.300000
v 1.142000 0.000000 -0.371000
v 1.000000 1.500000 0.000000
v 1.071000 0.000000 0.000000
v 1.076880 0.710500 0.000000
v 1.071000 1.421000 0.000000
v 1.142000 0.000000 -0.071000
v 0.856000 1.500000 -0.443000
v 0.894500 0.000000 -0.654000
v 1.142000 0.000000 -0.221000
v 1.071238 1.095375 -0.158875
v 1.071000 0.750000 -0.335500
v 1.035500 1.460500 -0.150000
v 0.447250 0.000000 -0.654000
v 0.875250 0.750000 -0.548500
v 0.428000 1.500000 -0.443000
v 0.437625 0.750000 -0.548500
v 0.884875 0.375000 -0.601250
v 0.928000 1.500000 -0.371500
v 1.018250 0.000000 -0.512500
v 1.106500 0.375000 -0.353250
v 1.035500 1.125000 -0.317750
v 0.865625 1.125000 -0.495750
v 0.500000 1.500000 0.000000
v 0.656438 0.750000 -0.548500
v 0.642000 1.500000 -0.443000
v 1.000000 1.500000 -0.217000
v 0.214000 1.500000 -0.443000
v 0.432813 1.125000 -0.495750
v 0.464000 1.500000 -0.221500
v 0.232000 1.500000 -0.221500
v 0.250000 1.500000 0.000000
v 0.707000 1.500000 -0.219250
v 0.750000 1.500000 0.000000
v 0.973125 0.750000 -0.442000
v 0.995687 0.375000 -0.477250
v 0.950563 1.125000 -0.406750
v 0.853500 1.500000 -0.218125
v 0.875000 1.500000 0.000000
v 0.218812 0.750000 -0.548500
v 0.442437 0.375000 -0.601250
v 0.223625 0.000000 -0.654000
v 0.670875 0.000000 -0.654000
v 0.649219 1.125000 -0.495750
v 0.216406 1.125000 -0.495750
v 0.221219 0.375000 -0.601250
v 0.663656 0.375000 -0.601250
v 1.071000 1.065750 0.000000
v 1.083805 0.355250 0.000000
v 1.080322 0.730250 -0.167750
v 1.110665 0.365125 -0.176625
v -1.000000 1.500000 -0.300000
v -1.142000 0.000000 -0.371000
v -1.000000 1.500000 0.000000
v -1.071000 0.000000 0.000000
v 0.000000 1.500000 -0.443000
v 0.000000 0.000000 -0.654000
v 0.000000 1.500000 0.000000
v -1.076880 0.710500 0.000000
v -1.071000 1.421000 0.000000
v -1.142000 0.000000 -0.071000
v -0.856000 1.500000 -0.443000
v -0.894500 0.000000 -0.654000
v -1.142000 0.000000 -0.221000
v -1.071238 1.095375 -0.158875
v -1.071000 0.750000 -0.335500
v -1.035500 1.460500 -0.150000
v -0.447250 0.000000 -0.654000
v 0.000000 0.750000 -0.548500
v -0.875250 0.750000 -0.548500
v -0.428000 1.500000 -0.443000
v -0.437625 0.750000 -0.548500
v -0.884875 0.375000 -0.601250
v -0.928000 1.500000 -0.371500
v -1.018250 0.000000 -0.512500
v -1.106500 0.375000 -0.353250
v -1.035500 1.125000 -0.317750
v -0.865625 1.125000 -0.495750
v -0.500000 1.500000 0.000000
v 0.000000 1.500000 -0.221500
v -0.656438 0.750000 -0.548500
v -0.642000 1.500000 -0.443000
v -1.000000 1.500000 -0.217000
v -0.214000 1.500000 -0.443000
v -0.432813 1.125000 -0.495750
v -0.464000 1.500000 -0.221500
v -0.232000 1.500000 -0.221500
v -0.250000 1.500000 0.000000
v -0.707000 1.500000 -0.219250
v -0.750000 1.500000 0.000000
v -0.973125 0.750000 -0.442000
v -0.995687 0.375000 -0.477250
v -0.950563 1.125000 -0.406750
v -0.853500 1.500000 -0.218125
v -0.875000 1.500000 0.000000
v -0.218812 0.750000 -0.548500
v -0.442437 0.375000 -0.601250
v 0.000000 0.375000 -0.601250
v -0.223625 0.000000 -0.654000
v -0.670875 0.000000 -0.654000
v 0.000000 1.125000 -0.495750
v -0.649219 1.125000 -0.495750
v -0.216406 1.125000 -0.495750
v -0.221219 0.375000 -0.601250
v -0.663656 0.375000 -0.601250
v -1.071000 1.065750 0.000000
v -1.083805 0.355250 0.000000
v -1.080322 0.730250 -0.167750
v -1.110665 0.365125 -0.176625
vt 0.836269 0.452006
vt 0.719443 0.564876
vt 0.719443 0.442513
vt 0.248336 0.601656
vt 0.135318 0.799178
vt 0.134220 0.599383
vt 0.888962 0.014028
vt 0.859768 0.205337
vt 0.836269 0.019325
vt 0.602618 0.037447
vt 0.602618 0.000000
vt 0.681732 0.018724
vt 0.089300 0.605028
vt 0.097246 0.803673
vt 0.248678 0.202118
vt 0.133122 0.399589
vt 0.132025 0.199794
vt 0.481986 0.206765
vt 0.363892 0.404186
vt 0.365332 0.204442
vt 0.476568 0.606203
vt 0.361012 0.803673
vt 0.362452 0.603929
vt 0.718257 0.191984
vt 0.602618 0.301162
vt 0.602618 0.169304
vt 0.602618 0.564876
vt 0.602618 0.433019
vt 0.719443 0.320149
vt 0.836269 0.339137
vt 0.836269 0.226267
vt 0.717663 0.114716
vt 0.602618 0.103376
vt 0.836269 0.113397
vt 0.081355 0.406384
vt 0.014793 0.215683
vt 0.073409 0.207739
vt 0.000000 0.018188
vt 0.065463 0.009094
vt 0.044380 0.610674
vt 0.029587 0.413178
vt 0.059174 0.808169
vt 0.130927 0.000000
vt 0.717070 0.037447
vt 0.798558 0.075422
vt 0.760846 0.037447
vt 0.248849 0.002349
vt 0.484695 0.007047
vt 0.366772 0.004698
vt 0.248507 0.401887
vt 0.479277 0.406484
vt 0.590685 0.608476
vt 0.473860 0.805921
vt 0.594662 0.408782
vt 0.598640 0.209089
vt 0.602618 0.009396
vt 0.248165 0.801425
vt 0.952929 0.586537
vt 0.911209 0.764800
vt 0.892474 0.578431
vt 0.935655 0.201511
vt 0.944481 0.007014
vt 0.875927 0.391899
vt 0.940338 0.394320
vt 1.000000 0.595646
vt 0.955605 0.779497
vt 1.000000 0.397097
vt 1.000000 0.198549
vt 1.000000 0.000000
vt 0.836269 0.564876
vt 0.586707 0.808169
vt 1.000000 0.794194
vt 0.836269 0.452006
vt 0.719443 0.442513
vt 0.248336 0.601656
vt 0.134220 0.599383
vt 0.135318 0.799178
vt 0.888962 0.014028
vt 0.836269 0.019325
vt 0.859768 0.205337
vt 0.602618 0.037447
vt 0.681732 0.018724
vt 0.602618 0.000000
vt 0.089300 0.605028
vt 0.097246 0.803673
vt 0.248678 0.202118
vt 0.132025 0.199794
vt 0.133122 0.399589
vt 0.481986 0.206765
vt 0.365332 0.204442
vt 0.363892 0.404186
vt 0.476568 0.606203
vt 0.362452 0.603929
vt 0.361012 0.803673
vt 0.718257 0.191984
vt 0.602618 0.169304
vt 0.602618 0.301162
vt 0.602618 0.433019
vt 0.719443 0.320149
vt 0.836269 0.339137
vt 0.836269 0.226267
vt 0.717663 0.114716
vt 0.602618 0.103376
vt 0.836269 0.113397
vt 0.081355 0.406384
vt 0.073409 0.207739
vt 0.014793 0.215683
vt 0.065463 0.009094
vt 0.000000 0.018188
vt 0.029587 0.413178
vt 0.044380 0.610674
vt 0.059174 0.808169
vt 0.130927 0.000000
vt 0.717070 0.037447
vt 0.798558 0.075422
vt 0.760846 0.037447
vt 0.248849 0.002349
vt 0.484695 0.007047
vt 0.366772 0.004698
vt 0.248507 0.401887
vt 0.479277 0.406484
vt 0.473860 0.805921
vt 0.248165 0.801425
vt 0.952929 0.586537
vt 0.892474 0.578431
vt 0.911209 0.764800
vt 0.935655 0.201511
vt 0.944481 0.007014
vt 0.875927 0.391899
vt 0.940338 0.394320
vt 1.000000 0.595646
vt 0.955605 0.779497
vt 1.000000 0.397097
vt 1.000000 0.198549
vt 1.000000 0.000000
vt 1.000000 0.794194
vn 0.0000 1.0000 0.0000
vn 0.0000 0.1393 -0.9903
vn 0.7069 -0.0255 0.7069
vn 0.7438 0.6684 0.0000
vn 0.7005 0.1085 -0.7054
vn 0.7192 0.1078 -0.6864
vn 0.7414 0.1069 -0.6625
vn 0.7485 0.1066 -0.6546
vn 0.7409 0.1122 -0.6621
vn 0.7325 0.1012 -0.6732
vn 0.7198 0.1006 -0.6869
vn 0.7481 0.1112 -0.6542
vn 1.0000 0.0000 0.0015
vn 0.9963 0.0855 0.0000
vn 0.9883 0.0193 0.1514
vn 0.9996 0.0165 0.0225
vn 0.9745 0.1003 -0.2005
vn 0.9983 0.0261 -0.0524
vn 0.9964 0.0833 -0.0188
vn 0.9955 0.0942 0.0000
vn 0.7186 0.1149 -0.6858
vn 0.7315 0.1133 -0.6723
vn 0.7418 0.1016 -0.6629
vn 0.7320 0.1073 -0.6728
vn 0.9738 0.1003 -0.2041
vn 0.9792 0.1292 0.1561
vn 0.9962 0.0821 0.0301
vn 0.9997 0.0247 0.0061
vn 0.9737 0.1018 -0.2036
vn 0.9745 0.1017 -0.2002
vn 0.9944 0.0962 -0.0439
vn 0.9960 0.0877 -0.0186
vn -0.7069 -0.0255 0.7069
vn -0.7438 0.6684 0.0000
vn -0.7005 0.1085 -0.7054
vn -0.7192 0.1078 -0.6864
vn -0.7414 0.1069 -0.6625
vn -0.7485 0.1066 -0.6546
vn -0.7409 0.1122 -0.6621
vn -0.7325 0.1012 -0.6732
vn -0.7198 0.1006 -0.6869
vn -0.7481 0.1112 -0.6542
vn -1.0000 0.0000 0.0015
vn -0.9963 0.0855 0.0000
vn -0.9883 0.0193 0.1514
vn -0.9996 0.0165 0.0225
vn -0.9745 0.1003 -0.2005
vn -0.9983 0.0261 -0.0524
vn -0.9964 0.0833 -0.0188
vn -0.9955 0.0942 0.0000
vn -0.7186 0.1149 -0.6858
vn -0.7315 0.1133 -0.6723
vn -0.7418 0.1016 -0.6629
vn -0.7320 0.1073 -0.6728
vn -0.9738 0.1003 -0.2041
vn -0.9792 0.1292 0.1561
vn -0.9962 0.0821 0.0301
vn -0.9997 0.0247 0.0061
vn -0.9737 0.1018 -0.2036
vn -0.9745 0.1017 -0.2002
vn -0.9944 0.0962 -0.0439
vn -0.9960 0.0877 -0.0186
usemtl Material
s off
f 28/1/1 80/2/1 31/3/1
f 44/4/2 8/5/2 23/6/2
f 7/7/3 49/8/3 4/9/3
f 3/10/4 6/11/4 13/12/4
f 37/13/5 8/5/5 19/14/5
f 47/15/2 15/16/2 18/17/2
f 46/18/2 17/19/2 41/20/2
f 45/21/2 16/22/2 29/23/2
f 33/24/1 24/25/1 34/26/1
f 31/3/1 58/27/1 32/28/1
f 30/29/1 32/28/1 24/25/1
f 16/30/1 31/3/1 30/29/1
f 26/31/1 30/29/1 33/24/1
f 38/32/1 34/26/1 39/33/1
f 8/34/1 33/24/1 38/32/1
f 35/35/6 23/6/6 37/13/6
f 35/35/7 21/36/7 36/37/7
f 36/37/8 2/38/8 20/39/8
f 15/16/9 36/37/9 18/17/9
f 35/35/10 22/40/10 12/41/10
f 37/13/11 1/42/11 22/40/11
f 18/17/12 20/39/12 9/43/12
f 27/44/1 39/33/1 3/10/1
f 19/45/1 38/32/1 1/46/1
f 43/47/2 18/17/2 9/43/2
f 42/48/2 41/20/2 14/49/2
f 25/50/2 23/6/2 15/16/2
f 40/51/2 29/23/2 17/19/2
f 101/52/2 28/53/2 45/21/2
f 69/54/2 45/21/2 40/51/2
f 98/55/2 40/51/2 46/18/2
f 57/56/2 46/18/2 42/48/2
f 17/19/2 44/4/2 25/50/2
f 29/23/2 26/57/2 44/4/2
f 41/20/2 25/50/2 47/15/2
f 14/49/2 47/15/2 43/47/2
f 11/58/13 6/59/13 48/60/13
f 51/61/14 7/7/14 10/62/14
f 51/61/15 5/63/15 49/8/15
f 50/64/16 48/60/16 5/63/16
f 22/65/17 13/66/17 11/58/17
f 12/67/18 11/58/18 50/64/18
f 21/68/19 50/64/19 51/61/19
f 21/68/20 10/62/20 2/69/20
f 28/1/1 56/70/1 80/2/1
f 44/4/2 26/57/2 8/5/2
f 13/12/4 1/46/4 27/44/4
f 27/44/4 3/10/4 13/12/4
f 37/13/21 23/6/21 8/5/21
f 47/15/2 25/50/2 15/16/2
f 46/18/2 40/51/2 17/19/2
f 45/21/2 28/53/2 16/22/2
f 33/24/1 30/29/1 24/25/1
f 31/3/1 80/2/1 58/27/1
f 30/29/1 31/3/1 32/28/1
f 16/30/1 28/1/1 31/3/1
f 26/31/1 16/30/1 30/29/1
f 38/32/1 33/24/1 34/26/1
f 8/34/1 26/31/1 33/24/1
f 35/35/22 15/16/22 23/6/22
f 35/35/10 12/41/10 21/36/10
f 36/37/23 21/36/23 2/38/23
f 15/16/24 35/35/24 36/37/24
f 35/35/6 37/13/6 22/40/6
f 37/13/5 19/14/5 1/42/5
f 18/17/7 36/37/7 20/39/7
f 27/44/1 38/32/1 39/33/1
f 19/45/1 8/34/1 38/32/1
f 38/32/1 27/44/1 1/46/1
f 43/47/2 47/15/2 18/17/2
f 42/48/2 46/18/2 41/20/2
f 25/50/2 44/4/2 23/6/2
f 40/51/2 45/21/2 29/23/2
f 101/52/2 56/71/2 28/53/2
f 69/54/2 101/52/2 45/21/2
f 98/55/2 69/54/2 40/51/2
f 57/56/2 98/55/2 46/18/2
f 17/19/2 29/23/2 44/4/2
f 29/23/2 16/22/2 26/57/2
f 41/20/2 17/19/2 25/50/2
f 14/49/2 41/20/2 47/15/2
f 11/58/25 13/66/25 6/59/25
f 51/61/26 49/8/26 7/7/26
f 51/61/27 50/64/27 5/63/27
f 50/64/28 11/58/28 48/60/28
f 22/65/29 1/72/29 13/66/29
f 12/67/30 22/65/30 11/58/30
f 21/68/31 12/67/31 50/64/31
f 21/68/32 51/61/32 10/62/32
f 84/73/1 87/74/1 80/2/1
f 102/75/2 78/76/2 62/77/2
f 61/78/33 55/79/33 107/80/33
f 54/81/34 67/82/34 60/83/34
f 93/84/35 74/85/35 62/77/35
f 105/86/2 73/87/2 70/88/2
f 104/89/2 97/90/2 72/91/2
f 103/92/2 85/93/2 71/94/2
f 89/95/1 90/96/1 79/97/1
f 87/74/1 88/98/1 58/27/1
f 86/99/1 79/97/1 88/98/1
f 71/100/1 86/99/1 87/74/1
f 82/101/1 89/95/1 86/99/1
f 94/102/1 95/103/1 90/96/1
f 62/104/1 94/102/1 89/95/1
f 91/105/36 93/84/36 78/76/36
f 91/105/37 92/106/37 76/107/37
f 92/106/38 75/108/38 53/109/38
f 70/88/39 73/87/39 92/106/39
f 91/105/40 66/110/40 77/111/40
f 93/84/41 77/111/41 52/112/41
f 73/87/42 63/113/42 75/108/42
f 83/114/1 54/81/1 95/103/1
f 74/115/1 52/116/1 94/102/1
f 100/117/2 63/113/2 73/87/2
f 99/118/2 68/119/2 97/90/2
f 81/120/2 70/88/2 78/76/2
f 96/121/2 72/91/2 85/93/2
f 101/52/2 103/92/2 84/122/2
f 69/54/2 96/121/2 103/92/2
f 98/55/2 104/89/2 96/121/2
f 57/56/2 99/118/2 104/89/2
f 72/91/2 81/120/2 102/75/2
f 85/93/2 102/75/2 82/123/2
f 97/90/2 105/86/2 81/120/2
f 68/119/2 100/117/2 105/86/2
f 65/124/43 106/125/43 60/126/43
f 109/127/44 64/128/44 61/78/44
f 109/127/45 107/80/45 59/129/45
f 108/130/46 59/129/46 106/125/46
f 77/131/47 65/124/47 67/132/47
f 66/133/48 108/130/48 65/124/48
f 76/134/49 109/127/49 108/130/49
f 76/134/50 53/135/50 64/128/50
f 84/73/1 80/2/1 56/70/1
f 102/75/2 62/77/2 82/123/2
f 67/82/34 83/114/34 52/116/34
f 83/114/34 67/82/34 54/81/34
f 93/84/51 62/77/51 78/76/51
f 105/86/2 70/88/2 81/120/2
f 104/89/2 72/91/2 96/121/2
f 103/92/2 71/94/2 84/122/2
f 89/95/1 79/97/1 86/99/1
f 87/74/1 58/27/1 80/2/1
f 86/99/1 88/98/1 87/74/1
f 71/100/1 87/74/1 84/73/1
f 82/101/1 86/99/1 71/100/1
f 94/102/1 90/96/1 89/95/1
f 62/104/1 89/95/1 82/101/1
f 91/105/52 78/76/52 70/88/52
f 91/105/40 76/107/40 66/110/40
f 92/106/53 53/109/53 76/107/53
f 70/88/54 92/106/54 91/105/54
f 91/105/36 77/111/36 93/84/36
f 93/84/35 52/112/35 74/85/35
f 73/87/37 75/108/37 92/106/37
f 83/114/1 95/103/1 94/102/1
f 74/115/1 94/102/1 62/104/1
f 94/102/1 52/116/1 83/114/1
f 100/117/2 73/87/2 105/86/2
f 99/118/2 97/90/2 104/89/2
f 81/120/2 78/76/2 102/75/2
f 96/121/2 85/93/2 103/92/2
f 101/52/2 84/122/2 56/71/2
f 69/54/2 103/92/2 101/52/2
f 98/55/2 96/121/2 69/54/2
f 57/56/2 104/89/2 98/55/2
f 72/91/2 102/75/2 85/93/2
f 85/93/2 82/123/2 71/94/2
f 97/90/2 81/120/2 72/91/2
f 68/119/2 105/86/2 97/90/2
f 65/124/55 60/126/55 67/132/55
f 109/127/56 61/78/56 107/80/56
f 109/127/57 59/129/57 108/130/57
f 108/130/58 106/125/58 65/124/58
f 77/131/59 67/132/59 52/136/59
f 66/133/60 65/124/60 77/131/60
f 76/134/61 108/130/61 66/133/61
f 76/134/62 64/128/62 109/127/62
